<svg xmlns="http://www.w3.org/2000/svg" viewBox="0 0 100 100"><rect x="0" y="0" width="100" height="100" rx="0" fill="#080a14"></rect><line x1="58.00" y1="50.00" x2="90.00" y2="50.00" stroke="#F0E8D4" stroke-width="1.20" opacity="0.47"></line><line x1="56.93" y1="54.00" x2="84.64" y2="70.00" stroke="#F0E8D4" stroke-width="1.20" opacity="0.47"></line><line x1="54.00" y1="56.93" x2="70.00" y2="84.64" stroke="#F0E8D4" stroke-width="1.20" opacity="0.47"></line><line x1="50.00" y1="58.00" x2="50.00" y2="90.00" stroke="#F0E8D4" stroke-width="1.20" opacity="0.47"></line><line x1="46.00" y1="56.93" x2="30.00" y2="84.64" stroke="#F0E8D4" stroke-width="1.20" opacity="0.47"></line><line x1="43.07" y1="54.00" x2="15.36" y2="70.00" stroke="#F0E8D4" stroke-width="1.20" opacity="0.47"></line><line x1="42.00" y1="50.00" x2="10.00" y2="50.00" stroke="#F0E8D4" stroke-width="1.20" opacity="0.47"></line><line x1="43.07" y1="46.00" x2="15.36" y2="30.00" stroke="#F0E8D4" stroke-width="1.20" opacity="0.47"></line><line x1="46.00" y1="43.07" x2="30.00" y2="15.36" stroke="#F0E8D4" stroke-width="1.20" opacity="0.47"></line><line x1="50.00" y1="42.00" x2="50.00" y2="10.00" stroke="#F0E8D4" stroke-width="1.20" opacity="0.47"></line><line x1="54.00" y1="43.07" x2="70.00" y2="15.36" stroke="#F0E8D4" stroke-width="1.20" opacity="0.47"></line><line x1="56.93" y1="46.00" x2="84.64" y2="30.00" stroke="#F0E8D4" stroke-width="1.20" opacity="0.47"></line><circle cx="50" cy="50" r="14" fill="none" stroke="#F0E8D4" stroke-width="1.50" opacity="0.81"></circle><circle cx="50" cy="50" r="27" fill="none" stroke="#F0E8D4" stroke-width="1.50" opacity="0.69"></circle><circle cx="50" cy="50" r="38" fill="none" stroke="#F0E8D4" stroke-width="1.50" opacity="0.58"></circle><circle cx="50" cy="50" r="42" fill="none" stroke="#7488E8" stroke-width="3.40"></circle><circle cx="50" cy="50" r="3" fill="#F0E8D4"></circle><circle cx="39.69" cy="23.97" r="9.5" fill="#F4C173" opacity="0.3"></circle><circle cx="39.69" cy="23.97" r="6.5" fill="#F4C173"></circle></svg>